<svg xmlns="http://www.w3.org/2000/svg" width="42" height="85" fill="none" viewBox="0 0 42 85"><path fill="#2b3541" d="M41.805 58.717c-.194-2.58 0-4.166-1.557-6.15-.973-1.19-1.947-1.785-2.53-3.372-1.947-4.364.778-5.554 2.53-8.53 1.168-1.984 1.168-4.166 1.168-6.546-.195-3.769 0-7.935-.779-11.505-.584-2.777-1.946-3.77-4.477-4.364-.39 0-.779-.199-1.168-.199.195-2.777.39-6.942-2.142-8.53-1.751-.595-4.088-.793-6.424-.793 0-.992 0-1.785-.194-2.777 1.168-.397 2.141-.992 1.946-2.182C27.984.595 23.701 0 21.365 0c-1.947 0-3.699 0-5.45 1.389-.974.793-2.531 2.182-2.142 3.769.195.991 1.168 1.388 2.336 1.586 0 .794 0 1.786.195 2.58-2.336-.2-4.867-.2-6.62.793-2.92 1.587-2.335 5.554-2.14 8.331-2.142.198-4.478.595-5.646 2.777-1.363 2.579-.973 6.943-.779 9.72.195 3.77-.389 6.943 1.752 10.117 1.168 1.785 2.726 2.975 2.531 5.356 0 2.578-1.557 4.165-3.115 6.15C.925 54.55.535 56.137.341 58.517c-.39 3.77-.39 7.736-.195 11.505 0 3.57-.584 8.332.584 11.704.779 2.182 2.141 2.579 4.088 2.777 5.256.794 10.707.397 16.158.397H35.38c2.142 0 4.088-.198 5.062-1.984 1.362-2.38.973-6.744 1.168-9.323.584-5.158.389-9.918.194-14.877M17.277 2.777c1.363-.992 2.725-.992 4.283-.992.973 0 1.946-.198 2.725.199.195.396 2.141 1.587 1.947 1.983-.195.794-4.088.397-4.867.397-1.557 0-3.115.198-4.672.198h-.973c-.195-.396 1.362-1.587 1.557-1.785m.779 3.77c1.362 0 2.53-.2 3.309-.398h2.92v2.579c-1.752.198-3.504.397-4.867.397H18.25c0-.794-.194-1.587-.194-2.579m-5.646 4.958c2.53-.198 5.256-.198 7.787-.397 2.53 0 5.256-.198 7.787 0 5.061 0 5.061 2.778 5.061 6.943-3.699-.396-7.592-.396-11.29-.595-4.089 0-8.177 0-12.265.397-.195-2.777-.39-5.951 2.92-6.348m27.643 59.51c0 3.174.39 8.728-2.141 10.712-2.53 1.984-7.592.992-10.512.992-3.894 0-7.787.198-11.68.198-3.504 0-11.486 1.19-13.238-2.975-.973-2.38-.39-6.745-.39-9.324 0-3.173-.194-6.546 0-9.72.195-3.372.585-5.355 2.337-7.934 1.168-1.587 2.336-3.174 2.725-5.158q.585-3.273-1.168-5.95c-.973-1.588-1.947-2.183-2.53-3.968-.585-2.182-.39-4.562-.39-6.744-.195-4.563-.584-9.72 4.867-10.712 4.672-.794 9.15-.794 13.821-.794 3.504.199 7.008.397 10.707.595 2.336.199 4.867 0 6.23 2.778.584 1.388.389 3.372.584 4.959.194 2.578.389 5.356.389 7.934 0 3.174-1.557 4.364-3.115 6.745-2.141 3.174-1.557 6.943.974 9.72.584.793 1.557 1.388 2.141 2.182.779 1.587.39 4.166.584 5.95-.195 3.571 0 7.142-.195 10.514"/><path fill="#2b3541" d="M14.162 44.236c4.867.397 9.734.397 14.6-.199 1.168-.198 1.168-1.983 0-1.983-4.866.595-9.733.595-14.6.198-1.168 0-1.168 1.785 0 1.984m15.184 5.951c-5.256-1.19-10.706-1.389-15.962-.199-1.168.199-.78 2.182.583 1.786 5.062-.992 9.929-.992 14.99.198.973.397 1.557-1.389.39-1.785M6.765 24.2c-2.336 1.985-1.557 5.158-1.557 7.936 0 1.19 1.946 1.19 1.946 0 0-1.984-.778-5.158.974-6.547.973-.793-.39-2.182-1.363-1.388m3.115-2.182c-1.169 0-1.169 1.983 0 1.983 1.362 0 1.362-1.983 0-1.983"/></svg>