<svg xmlns="http://www.w3.org/2000/svg" width="91" height="50" fill="none" viewBox="0 0 91 50"><path fill="#2b3541" d="M90.864 26.22c0-.73-.148-1.603-.148-2.331 0-.874.148-1.894-.445-2.622-.89-1.166-2.67-1.02-4.004-1.02 0-2.04-.148-4.078-.148-6.118 0-1.456.445-3.787-.445-5.098-1.483-2.04-5.636-1.748-8.157-1.894v-1.02C77.073.875 74.107 0 68.916 0c-5.635 0-7.118 1.894-7.563 7.429-.297 4.37-.445 8.74-.445 12.964-5.487.437-11.27-.146-16.61-.146-4.745 0-9.343.146-14.088.291 0-4.37-.148-8.594-.445-12.964-.445-5.39-1.928-7.428-7.563-7.428-4.004 0-8.008.437-8.602 4.807-.148.728-.148 1.602-.148 2.33-2.521 0-6.377-.146-7.86 1.602-1.78 2.331-1.038 8.303-1.038 11.07v.292c-1.186 0-2.521-.146-3.41.291-1.632.729-1.039 3.496-1.039 4.953s-.445 3.787 1.335 4.078c.89.146 1.928.292 2.818.146 0 3.35.148 6.846 1.038 9.76.89 3.787 4.597 3.787 8.156 3.787 0 .437 0 1.02.148 1.456.445 4.661 3.115 5.098 7.267 5.098 2.67 0 6.97 1.02 8.601-1.748.89-1.602.742-4.37.742-6.117q.222-5.682 0-11.362v-.874c10.084-.146 20.465.437 30.55-.146v10.197c0 2.185-.297 4.952.445 7.137 1.186 3.642 5.487 2.768 8.75 2.768 3.558 0 6.673.145 7.562-3.933.149-.874.297-1.748.297-2.622 3.41 0 7.118-.146 8.008-3.642.742-2.767.89-6.117.742-9.322 1.186 0 2.52 0 3.41-.437 1.335-.437 1.039-2.185.89-3.496M2.181 27.821c-.148-.874 0-1.894 0-2.768v-1.602c0-.146.149-.874 0-.874.297-.146 1.187 0 1.335 0h1.038c0 1.748-.148 3.641-.148 5.535-.742 0-1.483-.146-2.225-.291m5.043 10.196c-.445-1.602-.297-3.35-.297-4.953C6.63 28.84 6.63 24.47 6.63 20.1c0-2.476-.296-5.535.297-8.011.741-2.913 3.56-2.622 6.377-2.622-.149 4.807.296 9.614.296 14.275-.148 5.826-.444 11.799-.148 17.625-3.262.146-5.19.291-6.228-3.35m20.91 5.826c-.149 2.185.148 3.788-2.225 4.37-1.334.291-3.262 0-4.597 0-2.521 0-4.894-1.165-5.635-3.641-.445-1.894 0-4.662 0-6.555 0-4.661-.149-9.323 0-13.984 0-3.059 0-6.117-.149-9.176 0-2.477.149-4.807.149-7.284 0-4.078 2.669-4.952 6.377-4.952 1.78 0 4.152.874 5.19 2.476.593.874.297 3.205.297 4.37.148 2.33.148 4.807.296 7.137.148 4.516.297 9.177.297 13.693.148 4.37.296 9.03 0 13.546m2.224-15.877v-5.244c4.598-.145 9.343-.145 14.089-.291 5.487 0 11.27.583 16.61.146v5.244c-10.233.582-20.614.145-30.699.145M75.59 14.275c-.149 3.059-.149 6.118-.149 9.177.148 4.37 0 8.74 0 13.11 0 4.806 1.483 11.07-5.487 11.215-1.186 0-3.262.437-4.449 0-3.114-1.31-2.52-3.787-2.67-6.263-.148-4.37-.148-8.594 0-12.964 0-4.516.15-8.886.297-13.401.149-4.807-1.334-13.11 5.784-13.11 4.152 0 5.784 1.457 6.525 5.681.445 2.185.297 4.516.148 6.555m8.6 19.227c0 1.457.15 3.205-.296 4.516-.89 3.35-3.114 3.204-6.08 3.204 0-2.184-.297-4.37-.148-6.409V23.452c-.149-4.807.296-9.468.148-14.275 1.335 0 2.67 0 3.856.291 2.373.583 2.373.874 2.52 3.35.297 3.205 0 6.555.15 9.614 0 3.933 0 7.429-.15 11.07m2.374-5.244c-.149-1.893-.149-3.787-.149-5.535v-.291h1.483c.742 0 .742-.146.89.437.148.437 0 1.165 0 1.602 0 .583.148 1.166.148 1.748v1.894h-.148c-.89 0-1.483 0-2.224.146"/><path fill="#2b3541" d="M17.901 7.283c-1.038 2.33-.741 5.244-.445 7.72.149 1.311 2.225 1.311 2.077 0-.297-2.185-.594-4.952.296-7.137.593-1.311-1.483-1.748-1.928-.583m2.818-3.059c-1.335 0-1.335 2.04 0 2.04s1.334-2.04 0-2.04M65.802 6.41c-.742 1.019-.742 2.475-.89 3.64-.148 1.457-.297 2.914-.148 4.37.148 1.312 2.224 1.312 2.076 0-.148-1.165 0-2.476 0-3.641.148-1.02.148-2.476.741-3.35.742-1.166-1.038-2.185-1.78-1.02m2.967-2.622c-1.335 0-1.335 2.04 0 2.04s1.334-2.04 0-2.04"/></svg>