<svg xmlns="http://www.w3.org/2000/svg" width="30" height="30" fill="none" viewBox="0 0 30 30"><path fill="#2b3541" d="M4.395 30h9.785V19.336h-3.516V15.82h3.516v-4.394a4.4 4.4 0 0 1 4.394-4.395h4.395v3.516h-3.516a1.76 1.76 0 0 0-1.758 1.758v3.515h5.115l-.586 3.516h-4.529V30h7.91A4.4 4.4 0 0 0 30 25.605V4.395A4.4 4.4 0 0 0 25.605 0H4.395A4.4 4.4 0 0 0 0 4.395v21.21A4.4 4.4 0 0 0 4.395 30M1.758 4.395a2.64 2.64 0 0 1 2.637-2.637h21.21a2.64 2.64 0 0 1 2.637 2.637v21.21a2.64 2.64 0 0 1-2.637 2.637h-6.152v-7.148h4.26l1.172-7.032h-5.432v-1.757h5.274V5.273h-6.153a6.16 6.16 0 0 0-6.152 6.153v2.637H8.906v7.03h3.516v7.15H4.395a2.64 2.64 0 0 1-2.637-2.637z" opacity=".8"/></svg>