<svg xmlns="http://www.w3.org/2000/svg" width="65" height="61" fill="none" viewBox="0 0 65 61"><path fill="#2b3541" d="M50.106.35c-7.169-1.125-14.908 2.803-17.385 9.79-1.25-3.334-3.837-6.116-6.862-7.857-5.065-2.91-10.02-2.952-15.434-.616C6.237 3.493 2.97 8.25 1.239 12.413c-2.193 5.245-1.075 11.68.285 16.99.263.997 1.732.573 1.49-.426C.734 20.1 1.107 10.31 8.956 4.364c3.683-2.782 10.019-3.78 14.118-1.848 4.297 2.018 8.55 5.99 8.88 11.15.065 1.019 1.446 1.019 1.534 0C34.299 4.194 45.546-.86 53.438 3.005c8.375 4.099 11.927 15.715 9.164 24.507-1.732 5.543-8.66 4.162-13.197 4.205-2.587.021-5.175.042-7.74.021-.35 0-1.775 0-1.731.021-.417-.254-1.447-3.44-1.689-4.077-.328-.87-1.403-.68-1.512.212-.505 4.12-1.557 8.134-2.368 12.19-.811-6.817-1.14-13.698-2.236-20.472-.132-.786-1.316-.722-1.491 0-1.052 4.736-2.127 9.472-3.179 14.207-.482-2.208-.943-4.396-1.425-6.604-.153-.722-1.36-.786-1.49 0-.176 1.083-.44 4.056-1.14 4.587-.483.36-2.325-.021-2.96-.021l-8.397-.064C9 31.696 4.198 31.059 4.33 35.794c.066 2.485 2.302 4.991 3.727 6.817 2.06 2.655 4.516 4.949 7.103 7.03 5.328 4.31 11.269 7.624 17.035 11.255a.76.76 0 0 0 .767 0c10.435-5.882 18.832-13.485 26.242-23.063.614-.786-.46-1.932-1.096-1.125-4.889 6.328-10.304 12.338-16.793 16.968-2.061 1.486-6.577 5.712-9.164 5.352-1.206-.17-2.872-1.763-3.925-2.4-1.622-.998-3.222-1.975-4.823-3.016-3.508-2.272-6.95-4.693-10.019-7.539-1.841-1.72-11.093-10.852-4.998-12.785 2.302-.743 6.05.043 8.462.064 2.39.021 4.78.043 7.17.043.35 0 .635-.255.744-.574.176-.594.351-1.21.527-1.805.482 2.209.942 4.417 1.425 6.605.153.764 1.315.764 1.49 0l3.026-13.507c.877 7.072 1.184 14.208 2.324 21.237.153.956 1.425.595 1.512-.212.592-4.8 1.908-9.45 2.763-14.187.526 1.19 1.25 2.124 2.653 2.358 3.485.594 7.585 0 11.115-.022 3.245-.02 7.563.723 10.26-1.529 2.346-1.953 2.828-5.436 3.07-8.324.767-9.833-4.473-21.47-14.821-23.085"/></svg>