<svg xmlns="http://www.w3.org/2000/svg" width="67" height="107" fill="none" viewBox="0 0 67 107"><path fill="#2b3541" d="M60.63 65.75c1.897-10.685 3.583-21.46 3.733-32.325.09-8.263-.481-17.585-6.05-24.213-4.335-5.176-10.657-7.779-17.099-8.081-9.813-2.906-17.52.03-25.407 6.053C8.643 12.662 5.061 19.563 4.308 28.552c-1.023 12.258.572 24.97 2.589 37.076-2.68.182-5.84.726-6.683 2.936-.451 1.21-.12 4.267.361 5.357.783 1.725 2.439 1.634 3.282 2.936 1.294 2.028.09 7.839-.151 9.927-.361 3.148-.542 6.205-.21 9.352.42 3.844.902 9.413 5.418 10.503 13.486 3.238 9.06-16.193 7.255-22.79-.362-1.332-.934-2.664-1.144-4.056-.843-5.025-.12-3.481 1.384-6.387.843-1.604 1.024-2.542.753-4.54-.662-4.479-3.673-3.42-7.616-3.39h-.24c-1.265-7.536-2.138-15.102-2.53-22.73-.36-6.81-.872-14.255 1.084-20.883.06-.212.15-.363.21-.575C6.236 28.46 6.777 36.42 9.788 43.2c6.2 13.922 22.336 16.767 35.43 11.138 6.232-2.664 12.072-6.477 14.3-13.196 2.438-7.385 2.8-17.252-.301-24.456-1.476-3.42-3.763-6.446-6.503-8.958 2.65 1.816 4.877 4.176 6.292 7.112 3.582 7.476 3.19 16.344 2.71 24.395-.513 8.838-1.958 17.554-3.493 26.24v.031c-3.281-.303-6.833-.424-7.857 2.996-.451 1.453-.722 3.814-.06 5.206 1.204 2.482 2.318 1.302 2.408 4.358.241 6.599-9.181 27.452 3.07 28.602 11.891 1.12 9.062-15.678 8.038-23.123-.3-2.119-1.053-5.176.18-7.234.483-.787 1.566-1.15 2.018-1.937.813-1.302 1.053-3.299.963-4.782-.15-3.783-3.16-3.541-6.352-3.844m-46.057 2.3c1.746 1.392-.542 4.237-1.144 5.387-1.204 2.33-1.565 2.3-1.114 5.206.813 5.236 2.469 10.169 3.161 15.496.331 2.451 1.475 5.902-.12 8.172-1.536 2.209-4.365 2.421-6.442 1.271-4.094-2.24-3.402-10.684-3.01-14.86.33-3.663 1.595-8.354.39-11.986-.692-2.089-.962-1.09-2.347-2.694-4.184-4.933 1.716-5.902 5.599-6.084 1.174-.03 4.064-.696 5.027.091M35.796 3.702a23 23 0 0 1 7.435 2.3c7.676 3.905 12.071 10.11 11.409 18.977-.572 8.021-4.275 16.435-12.493 19.008-6.893 2.148-17.85 1.876-22.095-5.025-3.522-5.75-3.221-14.89-1.024-21.004 2.65-7.385 9.031-13.196 16.768-14.256m21.884 35.14c-3.552 13.347-20.53 17.372-32.39 14.83-13.878-2.997-18.092-20.067-14.75-32.385 2.438-8.929 9.331-15.345 17.429-17.252-3.251 1.695-6.111 4.116-8.248 7.234-7.947 11.652-6.713 32.93 9.512 35.714 7.255 1.24 15.804.182 21.193-5.297 5.358-5.448 7.435-14.437 6.532-21.882a15 15 0 0 0-.482-2.391c2.8 6.446 3.161 14.104 1.204 21.428m5.088 35.35c-1.837 2.573-1.987 2.966-1.686 6.598.391 4.45 4.425 25.243-4.816 23.487-8.85-1.695-1.355-20.49-1.084-26.18.09-2.089-.09-2.361-.813-3.874-.722-1.483-3.402-3.905-1.355-5.933.934-.938 5.57-.272 6.834-.15 4.967.635 5.599 2.3 2.92 6.052"/></svg>