<svg xmlns="http://www.w3.org/2000/svg" width="58" height="66" fill="none" viewBox="0 0 58 66"><path fill="#2b3541" d="M57.537 39.081c-.686-3.804-2.787-7.7-5.543-10.584 2.239-3.819 4.736-7.025 5.192-11.672.381-3.957-.289-8.804-2.893-11.949C51.751 1.778 48.31.812 44.487.551 39.402.198 34.255.106 29.154.167c-7.78.092-17.891-1.595-24.271 4.05C1.807 6.947.3 11.44.026 15.46c-.366 5.291 3.243 9.28 5.892 13.467C3.376 32.27 1.746 36.335.908 40.46-.263 46.26.01 50.692 2.372 56.2c1.248 2.93 3.487 6.488 6.166 8.313 1.843 1.258 4.112 1.212 6.243 1.288 6.563.261 13.14.2 19.704.093 4.233-.077 9.44.567 13.582-.614 4.08-1.15 6.136-5.905 7.704-9.48 2.223-5.076 2.726-11.304 1.767-16.718M8.72 3.726C14.582.735 22.73 1.946 29.154 1.87a158 158 0 0 1 9.7.138c4.461.2 9.684-.26 13.216 3.006 2.924 2.7 3.73 7.347 3.472 11.167-.305 4.494-2.68 7.53-4.827 11.105a12 12 0 0 0-.837-.706c-1.736-1.319-3.442-2.393-5.193-3.282 2.467-3.896 6.228-9.51 1.127-13.13-4.994-3.559-13.856-2.086-19.52-2.04-2.482.03-4.903.245-7.37.521-2.436.261-5.619.17-7.66 1.718-5.04 3.82-2.146 9.28.777 13.191-.517.292-1.035.583-1.522.92a19.5 19.5 0 0 0-3.457 3.053c-2.42-3.727-5.435-7.286-5.253-11.964C2.005 10.69 4.32 5.981 8.72 3.726m20.693 16.12c-5.375.047-10.948.599-15.836 2.9-2.07-2.67-4.705-6.151-2.482-9.556 1.736-2.67 4.705-2.5 7.431-2.792 3.06-.322 6.03-.552 9.106-.567 4.263-.016 8.77-.307 13.018.306 3.015.43 5.65 1.703 5.802 5.215.122 2.807-1.904 4.94-3.335 7.194-4.187-1.856-8.573-2.638-13.704-2.7m26.738 26.367c-.198 4.94-1.812 9.54-4.416 13.713-3.152 5.046-9.242 4.065-14.434 4.172-6.198.138-12.41.2-18.607.077-4.081-.077-7.736.276-10.918-2.807-2.908-2.823-4.34-6.81-5.482-10.614C.3 44.127 3.467 34.479 7.715 29.34c5.345-6.473 13.826-7.715 21.698-7.777 7.674.093 15.242 2.025 20.937 7.578 4.598 4.463 6.045 10.875 5.801 17.071"/><path fill="#2b3541" d="M30.875 30.292c-4.462-.629-8.618 1.963-9.76 6.396-1.112 4.326.563 8.636 5.162 9.572 4.34.874 10.369-.553 11.267-5.538.807-4.479-2.192-9.525-6.67-10.43m-2.863 14.403c-9.075-.353-5.786-13.897 2.406-12.746 3.198.644 5.375 3.742 5.527 6.979.229 4.601-4.187 5.92-7.933 5.767M16.227 26.58c-4.705 2.592-8.07 6.902-9.486 12.102-.29 1.074 1.355 1.534 1.644.46 1.31-4.785 4.37-8.681 8.71-11.074.974-.537.106-2.025-.868-1.488M6.603 41.888c-1.096 0-1.096 1.718 0 1.718s1.097-1.718 0-1.718"/></svg>