<svg xmlns="http://www.w3.org/2000/svg" width="98" height="30" fill="none" viewBox="0 0 98 30"><path fill="#2a2a2a" d="M66.189 9.567c-.434-4.024-2.943-7.422-6.57-8.852s-7.757-.671-10.677 1.9a10.5 10.5 0 0 0-6.41-2.571C39.703-.09 37.034.87 35.004 2.77c-1.894 1.766-3.057 4.203-3.285 6.841-.114 1.319.022 2.638.456 4.046l-17.703-.044c-.479 0-.867.223-1.095.603a1.37 1.37 0 0 0 0 1.386c.228.38.616.604 1.095.604l19.574.044c.456 0 .82-.2 1.049-.536a1.44 1.44 0 0 0 .091-1.364c-1.528-3.465-.958-7.131 1.483-9.545a7.54 7.54 0 0 1 5.566-2.169c2.19.067 4.29 1.073 5.75 2.727a1.3 1.3 0 0 0 .957.403c.388 0 .73-.134.958-.403 2.259-2.548 5.658-3.442 8.715-2.28 2.692 1.029 4.63 3.6 4.95 6.55.092.85.867 1.275 1.574 1.207.685-.089 1.118-.603 1.05-1.274M10.001 26.155H6.853a.68.68 0 0 1-.685-.67V4.201c0-.38.32-.67.685-.67h3.17a.68.68 0 0 1 .685.67v21.282a.716.716 0 0 1-.707.67M4.48 23.495H1.286a.68.68 0 0 1-.684-.671V6.795a.68.68 0 0 1 .684-.67H4.48a.68.68 0 0 1 .685.67v16.029c0 .38-.297.67-.685.67"/><path fill="#2a2a2a" d="M15.521 28.458h-3.148a.704.704 0 0 1-.707-.693V1.877c0-.38.32-.693.707-.693h3.148c.388 0 .708.313.708.693v25.91c0 .38-.32.67-.708.67"/><path fill="#fbf138" d="M83.572 14.217c-.228-.38-.616-.603-1.095-.603l-18.546.044c-.411 0-.959.224-1.164.671-2.099 4.56-6.342 7.98-9.376 10.172a60 60 0 0 1-4.038 2.66l-.137.067c-.205.112-.205.112-.388.045-.524-.201-1.049-.56-1.55-.895a13 13 0 0 1-.594-.402 55 55 0 0 1-3.65-2.526c-2.167-1.677-3.947-3.353-5.452-5.186-.434-.537-1.118-.604-1.666-.18-.547.425-.798 1.275-.25 1.946 1.46 1.766 3.193 3.442 5.315 5.097a54.5 54.5 0 0 0 6.045 4.113l.16.09c.525.312 1.118.67 1.825.67.137 0 .296-.022.456-.045.57-.134 1.118-.491 1.62-.804.137-.09.25-.18.388-.246a73 73 0 0 0 2.395-1.565c2.236-1.543 4.13-3.063 5.817-4.65 2.304-2.191 3.97-4.315 5.088-6.439l17.702-.044c.48 0 .867-.224 1.095-.604a1.37 1.37 0 0 0 0-1.386m4.631 11.938h3.171a.68.68 0 0 0 .685-.67V4.201a.68.68 0 0 0-.685-.67h-3.17a.68.68 0 0 0-.685.67v21.282c0 .358.297.67.684.67m5.521-2.658h3.194a.68.68 0 0 0 .684-.671V6.795a.68.68 0 0 0-.684-.67h-3.194a.68.68 0 0 0-.684.67v16.029c0 .38.296.67.684.67"/><path fill="#fbf138" d="M82.683 28.458h3.148a.704.704 0 0 0 .707-.693V1.877c0-.38-.32-.693-.707-.693h-3.148a.704.704 0 0 0-.707.693v25.91c0 .38.319.67.707.67"/></svg>